<svg width="80" height="209" viewBox="0 0 80 209" fill="none" xmlns="http://www.w3.org/2000/svg">
<path fill-rule="evenodd" clip-rule="evenodd" d="M64.2738 1.18568C55.5894 6.2336 44.9296 43.0379 31.7789 113.379C28.9784 128.361 25.4173 147.374 23.8662 155.63C18.6916 183.173 12.7699 202.726 8.87479 205.128C7.48734 205.986 4.22805 203.593 5.02645 202.303C6.05089 200.649 4.22471 197.881 2.1079 197.881C0.394185 197.881 0 198.705 0 202.29C0 207.348 2.00101 209 8.12762 209C21.1113 209 27.6098 189.638 46.1957 95.5885C57.9111 36.3099 66.0676 4.34675 69.4528 4.4546C70.1431 4.47684 71.711 6.60386 72.9359 9.18008C75.9212 15.46 79.4622 15.7279 79.9622 9.71155C80.4332 4.02541 76.4568 -0.0473942 70.4805 0.000416545C68.1566 0.0193185 65.3628 0.553022 64.2738 1.18568Z" fill="black"/>
</svg>
